<svg version="1.2" xmlns="http://www.w3.org/2000/svg" viewBox="0 0 1080 1080" width="1080" height="1080">
	<style>
		.s0 { fill: #d91604 } 
	</style>
	<path id="Форма 1" fill-rule="evenodd" class="s0" d="m232.49 314.13h10.12c13.07 22.96 37.56 38.37 65.6 38.37 6.51 0 12.9-0.84 18.93-2.4v136.71c0 10.62-8.46 19.19-18.93 19.19-10.47 0-18.93-8.57-18.93-19.19v-84.42l-80.45 65.23h33.13c10.47 0 18.93 8.58 18.93 19.19 0 10.62-8.46 19.19-18.93 19.19h-85.19c-31.35 0-56.79-25.78-56.79-57.56v-134.02c0-9.65-7.1-17.86-16.56-19.06l-4.67-0.6c-10.36-1.32-17.75-10.92-16.45-21.41 1.3-10.49 10.77-17.99 21.12-16.67l4.67 0.6c28.4 3.6 49.75 28.06 49.75 57.14v51.15c20.35-31 55.14-51.44 94.65-51.44zm94.65 15.88c-5.92 2.1-12.3 3.3-18.93 3.3-16.8 0-31.94-7.43-42.35-19.18q-3.29-3.69-5.86-7.92c-5.44-8.87-8.58-19.31-8.58-30.46v-70.33c0-3.54 2.78-6.36 6.27-6.42h0.12c1.95 0 3.79 0.96 4.97 2.52v0.06l7.57 10.19 16.09 21.77 2.84 3.84h37.86l2.84-3.84 16.09-21.77 7.57-10.19v-0.06c1.19-1.56 3.02-2.52 4.97-2.52h0.12c3.49 0.06 6.27 2.88 6.27 6.42v70.33c0 10.37-2.72 20.15-7.45 28.54-6.69 11.87-17.51 21.11-30.41 25.72zm-28.39-54.26c0-2.54-1-4.98-2.78-6.78-1.77-1.8-4.18-2.81-6.69-2.81-2.51 0-4.92 1.01-6.69 2.81-1.78 1.8-2.77 4.24-2.77 6.78 0 2.54 0.99 4.98 2.77 6.78 1.77 1.8 4.18 2.81 6.69 2.81 2.51 0 4.92-1.01 6.69-2.81 1.78-1.8 2.78-4.24 2.78-6.78zm28.39 9.59c2.51 0 4.92-1.01 6.69-2.81 1.78-1.8 2.78-4.24 2.78-6.78 0-2.54-1-4.98-2.78-6.78-1.77-1.8-4.18-2.81-6.69-2.81-2.51 0-4.92 1.01-6.69 2.81-1.78 1.8-2.77 4.24-2.77 6.78 0 2.54 0.99 4.98 2.77 6.78 1.77 1.8 4.18 2.81 6.69 2.81z"/>
	<path id="Форма 2" class="s0" d="m517.36 335.93c-25.89-29.3-64.53-29.3-90.42 0-25.88 29.3-25.88 76.79 0 106.09 25.89 29.3 64.53 29.3 90.42 0 5.17-5.86 13.58-5.86 18.76 0 5.18 5.86 5.18 15.38 0 21.24-36.24 41.01-91.66 41.01-127.9 0-36.24-41.02-36.24-107.5 0-148.52 36.24-41.01 91.66-41.01 127.9 0 5.18 5.86 5.18 15.38 0 21.24-5.18 5.86-13.59 5.86-18.76-0.05z"/>
	<path id="Форма 3" fill-rule="evenodd" class="s0" d="m687.96 430.76l16.4 44.55c2.78 7.56-0.37 16.23-7.05 19.39-6.69 3.16-14.35-0.42-17.14-7.98l-13.03-35.4h-80.91l-13.03 35.4c-2.79 7.56-10.46 11.14-17.14 7.98-6.68-3.16-9.83-11.83-7.05-19.39l16.4-44.55 49.18-133.62c2.01-5.52 6.81-9.14 12.09-9.14 5.29 0 10.09 3.62 12.1 9.14zm-61.28-89.31l-29.51 80.17h59.02z"/>
	<path id="Форма 4" class="s0" d="m711 291c-8.3 0-15 6.58-15 14.71 0 8.14 6.7 14.72 15 14.72h60v161.86c0 8.13 6.7 14.71 15 14.71 8.3 0 15-6.58 15-14.71v-161.86h60c8.3 0 15-6.58 15-14.72 0-8.13-6.7-14.71-15-14.71h-75z"/>
</svg>